<?xml version="1.0" standalone="no"?>
<!DOCTYPE svg PUBLIC "-//W3C//DTD SVG 20010904//EN"
 "http://www.w3.org/TR/2001/REC-SVG-20010904/DTD/svg10.dtd">
<svg version="1.0" xmlns="http://www.w3.org/2000/svg"
 width="355.000000pt" height="355.000000pt" viewBox="0 0 355.000000 355.000000"
 preserveAspectRatio="xMidYMid meet">
<metadata>
Created by potrace 1.11, written by Peter Selinger 2001-2013
</metadata>
<g transform="translate(0.000000,355.000000) scale(0.100000,-0.100000)"
fill="#000000" stroke="none">
<path d="M512 3535 c-184 -40 -360 -179 -441 -346 -74 -154 -71 -86 -71 -1414
0 -1329 -3 -1264 71 -1414 84 -170 260 -308 444 -346 105 -22 2415 -22 2520 0
184 38 360 176 444 346 74 150 71 85 71 1414 0 1329 3 1263 -71 1415 -82 168
-261 307 -444 345 -101 21 -2426 21 -2523 0z m411 -1401 c51 -18 137 -75 137
-91 0 -6 -22 -35 -49 -65 l-48 -53 -39 27 c-54 37 -91 49 -149 50 -136 1 -238
-136 -206 -278 39 -172 219 -230 367 -117 l36 27 48 -54 49 -55 -22 -23 c-32
-34 -107 -79 -152 -91 -242 -61 -454 66 -497 298 -30 159 52 331 192 402 94
49 233 58 333 23z m695 -19 c96 -44 98 -47 51 -117 -22 -32 -44 -58 -47 -56
-4 2 -34 17 -67 33 -104 51 -215 36 -215 -30 0 -36 40 -62 140 -90 177 -50
241 -102 248 -204 6 -81 -12 -135 -60 -181 -99 -96 -319 -94 -465 5 -29 20
-53 39 -53 43 1 4 22 31 48 59 l47 52 44 -29 c48 -33 127 -60 173 -60 47 0 97
26 103 53 14 55 -19 78 -163 117 -112 30 -179 71 -203 123 -35 78 -20 188 34
245 76 81 252 98 385 37z m1349 9 c62 -30 116 -88 151 -164 37 -80 43 -238 12
-329 -51 -152 -156 -232 -305 -233 -96 0 -160 27 -224 98 -74 80 -95 143 -95
279 0 133 21 197 91 275 97 108 238 136 370 74z m-617 -54 l0 -70 -154 0 -153
0 -7 -46 c-10 -79 -13 -75 57 -68 73 7 152 -11 207 -48 82 -55 107 -202 53
-309 -20 -38 -42 -63 -75 -85 -113 -76 -304 -60 -418 35 l-34 28 48 57 c27 31
50 56 53 56 2 0 20 -12 38 -26 45 -34 120 -56 163 -48 89 17 123 105 63 165
-17 17 -41 30 -58 30 -48 3 -97 -2 -131 -12 -28 -9 -38 -7 -78 18 l-45 28 6
155 c3 85 8 167 11 183 l6 27 224 0 224 0 0 -70z"/>
<path d="M2770 1992 c-65 -32 -100 -109 -100 -219 0 -152 91 -257 193 -224 78
26 120 106 120 226 0 117 -36 190 -110 221 -42 18 -61 18 -103 -4z"/>
</g>
</svg>
